<svg width="80" height="80" viewBox="0 0 80 80" fill="none" xmlns="http://www.w3.org/2000/svg">
<path d="M25 2.5H40V15.325C40 15.9018 39.7708 16.4551 39.363 16.863C38.9551 17.2708 38.4018 17.5 37.825 17.5H27.175C26.5982 17.5 26.0449 17.2708 25.637 16.863C25.2292 16.4551 25 15.9018 25 15.325V2.5Z" fill="white"/>
<path d="M27.5 65H7.5C5.51088 65 3.60322 64.2098 2.1967 62.8033C0.790176 61.3968 0 59.4891 0 57.5L0 7.5C0 5.51088 0.790176 3.60322 2.1967 2.1967C3.60322 0.790176 5.51088 0 7.5 0L57.5 0C59.4891 0 61.3968 0.790176 62.8033 2.1967C64.2098 3.60322 65 5.51088 65 7.5V27.5C65 28.163 64.7366 28.7989 64.2678 29.2678C63.7989 29.7366 63.163 30 62.5 30C61.837 30 61.2011 29.7366 60.7322 29.2678C60.2634 28.7989 60 28.163 60 27.5V7.5C60 6.83696 59.7366 6.20107 59.2678 5.73223C58.7989 5.26339 58.163 5 57.5 5H7.5C6.83696 5 6.20107 5.26339 5.73223 5.73223C5.26339 6.20107 5 6.83696 5 7.5V57.5C5 58.163 5.26339 58.7989 5.73223 59.2678C6.20107 59.7366 6.83696 60 7.5 60H27.5C28.163 60 28.7989 60.2634 29.2678 60.7322C29.7366 61.2011 30 61.837 30 62.5C30 63.163 29.7366 63.7989 29.2678 64.2678C28.7989 64.7366 28.163 65 27.5 65Z" fill="white"/>
<path d="M17.5 55H12.5C11.837 55 11.2011 54.7366 10.7322 54.2678C10.2634 53.7989 10 53.163 10 52.5C10 51.837 10.2634 51.2011 10.7322 50.7322C11.2011 50.2634 11.837 50 12.5 50H17.5C18.163 50 18.7989 50.2634 19.2678 50.7322C19.7366 51.2011 20 51.837 20 52.5C20 53.163 19.7366 53.7989 19.2678 54.2678C18.7989 54.7366 18.163 55 17.5 55Z" fill="white"/>
<path d="M57.5 80C53.0499 80 48.6998 78.6804 44.9997 76.2081C41.2996 73.7357 38.4157 70.2217 36.7127 66.1104C35.0097 61.9991 34.5642 57.475 35.4323 53.1105C36.3005 48.7459 38.4434 44.7368 41.5901 41.5901C44.7368 38.4434 48.7459 36.3005 53.1105 35.4323C57.475 34.5642 61.9991 35.0097 66.1104 36.7127C70.2217 38.4157 73.7357 41.2996 76.2081 44.9997C78.6804 48.6998 80 53.0499 80 57.5C80 63.4674 77.6295 69.1903 73.4099 73.4099C69.1903 77.6295 63.4674 80 57.5 80ZM57.5 40C54.0388 40 50.6554 41.0264 47.7775 42.9493C44.8997 44.8722 42.6566 47.6053 41.3321 50.8031C40.0076 54.0008 39.661 57.5194 40.3363 60.9141C41.0115 64.3088 42.6782 67.427 45.1256 69.8744C47.5731 72.3218 50.6913 73.9885 54.0859 74.6638C57.4806 75.339 60.9993 74.9924 64.197 73.6679C67.3947 72.3434 70.1278 70.1003 72.0507 67.2225C73.9737 64.3446 75 60.9612 75 57.5C75 52.8587 73.1563 48.4075 69.8744 45.1256C66.5925 41.8438 62.1413 40 57.5 40Z" fill="white"/>
<path d="M57.5 70C64.4036 70 70 64.4036 70 57.5C70 50.5964 64.4036 45 57.5 45C50.5964 45 45 50.5964 45 57.5C45 64.4036 50.5964 70 57.5 70Z" fill="#6ED1CF"/>
<path d="M57.5005 65.0005C57.1714 65.0024 56.8453 64.9393 56.5407 64.8149C56.2361 64.6905 55.9591 64.5072 55.7255 64.2755L50.7255 59.2755C50.2547 58.8047 49.9902 58.1662 49.9902 57.5005C49.9902 56.8347 50.2547 56.1962 50.7255 55.7255C51.1962 55.2547 51.8347 54.9902 52.5005 54.9902C53.1662 54.9902 53.8047 55.2547 54.2755 55.7255L57.5005 58.9755L65.7255 50.7255C66.1962 50.2547 66.8347 49.9902 67.5005 49.9902C68.1662 49.9902 68.8047 50.2547 69.2755 50.7255C69.7462 51.1962 70.0107 51.8347 70.0107 52.5005C70.0107 53.1662 69.7462 53.8047 69.2755 54.2755L59.2755 64.2755C59.0419 64.5072 58.7648 64.6905 58.4602 64.8149C58.1556 64.9393 57.8295 65.0024 57.5005 65.0005Z" fill="#00063D"/>
</svg>
