<svg width="80" height="80" viewBox="0 0 80 80" fill="none" xmlns="http://www.w3.org/2000/svg">
<path d="M40.0009 0C17.9445 0 0 17.9445 0 40C0 62.0555 17.9445 79.9991 40 79.9991C62.0555 79.9991 80 62.0555 80 40C80.0009 17.9445 62.0573 0 40.0009 0ZM40.0009 78.2617C18.9031 78.2617 1.73917 61.0977 1.73917 40.0009C1.7383 18.9031 18.9031 1.7383 40.0009 1.7383C61.0986 1.7383 78.2626 18.9031 78.2626 40C78.2626 61.0977 61.0986 78.2617 40.0009 78.2617Z" fill="white"/>
<path d="M59.5822 25.5844C58.5783 24.8013 57.0008 24.5492 54.781 24.3971C51.5617 24.1781 46.0982 24.0469 40.1663 24.0469C34.2343 24.0469 28.7717 24.1772 25.5532 24.3971C23.3334 24.5492 21.7559 24.8013 20.7529 25.5844C20.0602 26.1259 19.2137 27.1732 18.8208 30.5047C18.2993 34.9382 18.2993 45.0481 18.8208 49.4834C19.2137 52.8105 20.0593 53.8596 20.7512 54.4002C21.7551 55.1868 23.3334 55.4388 25.5541 55.5909C28.79 55.8091 34.2526 55.9403 40.1663 55.9403C46.0799 55.9403 51.5443 55.8099 54.781 55.5909C57.0008 55.4397 58.5792 55.1876 59.5848 54.3993C60.2766 53.8544 61.1223 52.8027 61.5108 49.4834C62.0349 45.0481 62.0349 34.9373 61.5108 30.5047C61.1223 27.181 60.2766 26.1302 59.5822 25.5844ZM59.7847 49.2809C59.5492 51.2904 59.1198 52.5532 58.5114 53.0321C57.8195 53.5745 56.1777 53.7535 54.6637 53.857C51.4635 54.0734 46.0443 54.202 40.1663 54.202C34.2891 54.202 28.8699 54.0734 25.6714 53.857C24.1565 53.7535 22.5147 53.5745 21.822 53.0321C21.2127 52.5558 20.7842 51.2938 20.5461 49.2809C20.0359 44.9404 20.0359 35.0468 20.5461 30.708C20.7833 28.6925 21.2127 27.4296 21.8211 26.955C22.5138 26.4144 24.1565 26.2354 25.6706 26.1311C28.8525 25.9147 34.2717 25.7852 40.1654 25.7852C46.0599 25.7852 51.48 25.9147 54.6611 26.1311C56.1769 26.2354 57.8187 26.4144 58.5096 26.9533C59.1198 27.4322 59.5483 28.6951 59.7838 30.708C60.2984 35.0468 60.2984 44.9404 59.7847 49.2809Z" fill="white"/>
<path d="M48.1229 39.2233L35.5324 32.6595C35.2621 32.5187 34.9405 32.5283 34.6798 32.6873C34.4199 32.8447 34.2617 33.1263 34.2617 33.4305V46.559C34.2617 46.8632 34.4208 47.1448 34.6798 47.3021C34.818 47.3864 34.9744 47.4281 35.1309 47.4281C35.2691 47.4281 35.4064 47.3951 35.5324 47.3299L48.1229 40.7643C48.4106 40.6148 48.5905 40.3176 48.5905 39.9934C48.5905 39.6692 48.4097 39.3728 48.1229 39.2233ZM35.9991 45.1257V34.8637L45.8405 39.9943L35.9991 45.1257Z" fill="#00063D"/>
</svg>
