<svg width="20" height="20" viewBox="0 0 20 20" fill="none" xmlns="http://www.w3.org/2000/svg">
<path fill-rule="evenodd" clip-rule="evenodd" d="M9.99984 15.3346C7.0585 15.3346 4.6665 12.9413 4.6665 10.0013C4.6665 7.0613 7.0585 4.66797 9.99984 4.66797C12.9412 4.66797 15.3332 7.0613 15.3332 10.0013C15.3332 12.9413 12.9412 15.3346 9.99984 15.3346ZM19.5833 8.33333H17.2042C17.0375 7.675 16.8258 6.94417 16.5558 6.39L18.2492 4.69667C18.4125 4.53417 18.4125 4.27083 18.2492 4.1075L15.8917 1.75167C15.7292 1.5875 15.4658 1.5875 15.3025 1.75167L13.6092 3.44417C13.0542 3.17417 12.3242 2.9625 11.6667 2.79667V0.416667C11.6667 0.186667 11.48 0 11.25 0H8.75C8.52 0 8.33333 0.186667 8.33333 0.416667V2.79667C7.675 2.9625 6.94417 3.17417 6.39083 3.44417L4.69667 1.75167C4.53333 1.5875 4.27 1.5875 4.1075 1.75167L1.75 4.1075C1.5875 4.27 1.5875 4.53333 1.75 4.69667L3.44417 6.39083C3.17583 6.94333 2.9625 7.67417 2.79583 8.33333H0.416667C0.186667 8.33333 0 8.52 0 8.75V11.25C0 11.48 0.186667 11.6667 0.416667 11.6667H2.79583C2.9625 12.3258 3.17583 13.0567 3.44417 13.61L1.75 15.3042C1.58667 15.4667 1.58667 15.73 1.75 15.8925L4.1075 18.2492C4.26417 18.4058 4.54083 18.4058 4.69667 18.2492L6.39083 16.5558C6.9425 16.825 7.67417 17.0367 8.33333 17.205V19.5833C8.33333 19.8133 8.52 20 8.75 20H11.25C11.48 20 11.6667 19.8133 11.6667 19.5833V17.205C12.325 17.0367 13.0567 16.825 13.6092 16.5558L15.3033 18.2492C15.4667 18.4125 15.73 18.4125 15.8925 18.2492L18.2492 15.8925C18.4125 15.73 18.4125 15.4667 18.2492 15.3042L16.5558 13.61C16.825 13.0567 17.0375 12.3258 17.2042 11.6667H19.5833C19.8133 11.6667 20 11.48 20 11.25V8.75C20 8.52 19.8133 8.33333 19.5833 8.33333Z" fill="white"/>
</svg>
