<svg width="80" height="85" viewBox="0 0 80 85" fill="none" xmlns="http://www.w3.org/2000/svg">
<path d="M17.9545 30.0527L40.8067 7.20052C41.1984 6.80884 41.5091 6.34386 41.7211 5.83211C41.933 5.32036 42.0421 4.77188 42.0421 4.21796C42.0421 3.66405 41.933 3.11557 41.7211 2.60382C41.5091 2.09207 41.1984 1.62709 40.8067 1.23541C40.4151 0.843739 39.9501 0.533046 39.4383 0.321073C38.9266 0.109101 38.3781 0 37.8242 0C36.7055 0 35.6326 0.444391 34.8416 1.23541L14.972 21.0211L7.20052 13.3337C6.40949 12.5426 5.33664 12.0982 4.21796 12.0982C3.09929 12.0982 2.02643 12.5426 1.23541 13.3337C0.444391 14.1247 8.33477e-09 15.1975 0 16.3162C-8.33477e-09 17.4349 0.444391 18.5077 1.23541 19.2988L11.9894 30.0527C12.3799 30.4465 12.8445 30.759 13.3564 30.9723C13.8683 31.1855 14.4174 31.2953 14.972 31.2953C15.5265 31.2953 16.0756 31.1855 16.5875 30.9723C17.0994 30.759 17.564 30.4465 17.9545 30.0527ZM67.2296 16.8203H44.1253C43.0112 16.8203 41.9427 17.2629 41.1549 18.0507C40.3671 18.8385 39.9246 19.907 39.9246 21.0211C39.9246 22.1352 40.3671 23.2037 41.1549 23.9915C41.9427 24.7793 43.0112 25.2218 44.1253 25.2218H67.2296C68.3437 25.2218 69.4122 25.6644 70.2 26.4522C70.9878 27.24 71.4304 28.3085 71.4304 29.4226V70.2542L64.8352 64.163C64.0604 63.4377 63.0399 63.0325 61.9786 63.0288H25.2218C24.1077 63.0288 23.0392 62.5863 22.2514 61.7985C21.4637 61.0107 21.0211 59.9422 21.0211 58.8281V44.1253C21.0211 43.0112 20.5785 41.9427 19.7907 41.1549C19.0029 40.3671 17.9344 39.9246 16.8203 39.9246C15.7062 39.9246 14.6377 40.3671 13.8499 41.1549C13.0621 41.9427 12.6195 43.0112 12.6195 44.1253V58.8281C12.6195 62.1704 13.9473 65.3759 16.3107 67.7393C18.674 70.1026 21.8795 71.4304 25.2218 71.4304H60.3403L72.9427 82.8985C73.7174 83.6238 74.7379 84.0291 75.7992 84.0327C76.3754 84.0264 76.9453 83.9125 77.4795 83.6967C78.2309 83.3687 78.87 82.828 79.3178 82.1413C79.7657 81.4546 80.0028 80.6518 80 79.8319V29.4226C80.0001 27.7534 79.6687 26.1008 79.0249 24.5608C78.3811 23.0208 77.4377 21.624 76.2496 20.4515C75.0615 19.279 73.6524 18.3543 72.1039 17.7309C70.5555 17.1076 68.8987 16.798 67.2296 16.8203Z" fill="white"/>
</svg>
