<svg width="16" height="18" viewBox="0 0 16 18" fill="none" xmlns="http://www.w3.org/2000/svg">
<path d="M16 15.4799L11.7164 10.8893C12.7764 9.62335 13.326 8.00755 13.2579 6.35786C13.1897 4.70817 12.5085 3.14325 11.3477 1.96913C10.1868 0.79501 8.62974 0.096136 6.98093 0.00920478C5.33212 -0.0777264 3.71016 0.453532 2.43228 1.49907C1.1544 2.54461 0.312504 4.02923 0.0712164 5.6626C-0.170071 7.29598 0.206609 8.96062 1.1276 10.331C2.0486 11.7014 3.44768 12.6789 5.0512 13.0724C6.65472 13.4659 8.34734 13.2471 9.79809 12.4588L14.1996 17.2042L16 15.4799ZM2.09057 6.60811C2.09057 5.7127 2.35611 4.83739 2.85363 4.09291C3.35115 3.34843 4.05827 2.76823 4.88557 2.42568C5.71288 2.08313 6.6232 1.99363 7.50137 2.1685C8.37955 2.34336 9.18613 2.77474 9.81911 3.40807C10.4521 4.04139 10.883 4.84821 11.0574 5.72648C11.2318 6.60475 11.1418 7.51501 10.7988 8.34213C10.4558 9.16925 9.87524 9.87608 9.13049 10.3732C8.38575 10.8703 7.51028 11.1354 6.61487 11.1349C6.02052 11.1349 5.43201 11.0178 4.88293 10.7903C4.33386 10.5627 3.83498 10.2293 3.41482 9.80888C2.99467 9.3885 2.66145 8.88944 2.43423 8.34024C2.20701 7.79104 2.09024 7.20246 2.09057 6.60811Z" fill="#E7E9F3"/>
</svg>
