<svg width="16" height="16" viewBox="0 0 16 16" fill="none" xmlns="http://www.w3.org/2000/svg">
<path fill-rule="evenodd" clip-rule="evenodd" d="M10.0862 0H5.91228C5.72028 0 5.56445 0.155825 5.56445 0.347825V4.52172C5.56445 4.71372 5.72028 4.86955 5.91228 4.86955H10.0862C10.2775 4.86955 10.434 4.71372 10.434 4.52172V0.347825C10.434 0.155825 10.2775 0 10.0862 0Z" fill="white"/>
<path fill-rule="evenodd" clip-rule="evenodd" d="M4.52172 0H0.347825C0.155825 0 0 0.155825 0 0.347825V4.52172C0 4.71372 0.155825 4.86955 0.347825 4.86955H4.52172C4.71302 4.86955 4.86955 4.71372 4.86955 4.52172V0.347825C4.86955 0.155825 4.71302 0 4.52172 0Z" fill="white"/>
<path fill-rule="evenodd" clip-rule="evenodd" d="M15.6526 0H11.4787C11.2867 0 11.1309 0.155825 11.1309 0.347825V4.52172C11.1309 4.71372 11.2867 4.86955 11.4787 4.86955H15.6526C15.8439 4.86955 16.0004 4.71372 16.0004 4.52172V0.347825C16.0004 0.155825 15.8439 0 15.6526 0Z" fill="white"/>
<path fill-rule="evenodd" clip-rule="evenodd" d="M10.0862 5.56445H5.91228C5.72028 5.56445 5.56445 5.72028 5.56445 5.91228V10.0862C5.56445 10.2782 5.72028 10.434 5.91228 10.434H10.0862C10.2775 10.434 10.434 10.2782 10.434 10.0862V5.91228C10.434 5.72028 10.2775 5.56445 10.0862 5.56445Z" fill="white"/>
<path fill-rule="evenodd" clip-rule="evenodd" d="M4.52172 5.56445H0.347825C0.155825 5.56445 0 5.72028 0 5.91228V10.0862C0 10.2782 0.155825 10.434 0.347825 10.434H4.52172C4.71302 10.434 4.86955 10.2782 4.86955 10.0862V5.91228C4.86955 5.72028 4.71302 5.56445 4.52172 5.56445Z" fill="white"/>
<path fill-rule="evenodd" clip-rule="evenodd" d="M15.6526 5.56445H11.4787C11.2867 5.56445 11.1309 5.72028 11.1309 5.91228V10.0862C11.1309 10.2782 11.2867 10.434 11.4787 10.434H15.6526C15.8439 10.434 16.0004 10.2782 16.0004 10.0862V5.91228C16.0004 5.72028 15.8439 5.56445 15.6526 5.56445Z" fill="white"/>
<path fill-rule="evenodd" clip-rule="evenodd" d="M10.0862 11.1309H5.91228C5.72028 11.1309 5.56445 11.2867 5.56445 11.4787V15.6526C5.56445 15.8446 5.72028 16.0004 5.91228 16.0004H10.0862C10.2775 16.0004 10.434 15.8446 10.434 15.6526V11.4787C10.434 11.2867 10.2775 11.1309 10.0862 11.1309Z" fill="white"/>
<path fill-rule="evenodd" clip-rule="evenodd" d="M4.52172 11.1309H0.347825C0.155825 11.1309 0 11.2867 0 11.4787V15.6526C0 15.8446 0.155825 16.0004 0.347825 16.0004H4.52172C4.71302 16.0004 4.86955 15.8446 4.86955 15.6526V11.4787C4.86955 11.2867 4.71302 11.1309 4.52172 11.1309Z" fill="white"/>
<path fill-rule="evenodd" clip-rule="evenodd" d="M15.6526 11.1309H11.4787C11.2867 11.1309 11.1309 11.2867 11.1309 11.4787V15.6526C11.1309 15.8446 11.2867 16.0004 11.4787 16.0004H15.6526C15.8439 16.0004 16.0004 15.8446 16.0004 15.6526V11.4787C16.0004 11.2867 15.8439 11.1309 15.6526 11.1309Z" fill="white"/>
</svg>
