<svg width="22" height="15" viewBox="0 0 22 15" fill="none" xmlns="http://www.w3.org/2000/svg">
<path d="M0.763111 1.57884H10.9379C11.1403 1.57884 11.3344 1.49567 11.4775 1.34762C11.6206 1.19958 11.701 0.998786 11.701 0.789419C11.701 0.580052 11.6206 0.379261 11.4775 0.231216C11.3344 0.0831711 11.1403 0 10.9379 0H0.763111C0.560722 0 0.366621 0.0831711 0.22351 0.231216C0.0803989 0.379261 0 0.580052 0 0.789419C0 0.998786 0.0803989 1.19958 0.22351 1.34762C0.366621 1.49567 0.560722 1.57884 0.763111 1.57884Z" fill="white"/>
<path d="M21.8758 7.44762C21.8758 7.23825 21.7955 7.03746 21.6523 6.88942C21.5092 6.74137 21.3151 6.6582 21.1127 6.6582H0.763111C0.560721 6.6582 0.366621 6.74137 0.22351 6.88942C0.0803989 7.03746 0 7.23825 0 7.44762C0 7.65699 0.0803989 7.85778 0.22351 8.00582C0.366621 8.15387 0.560721 8.23704 0.763111 8.23704H21.1127C21.3151 8.23704 21.5092 8.15387 21.6523 8.00582C21.7955 7.85778 21.8758 7.65699 21.8758 7.44762Z" fill="white"/>
<path d="M21.1137 13.3184H10.9389C10.7365 13.3184 10.5424 13.4015 10.3993 13.5496C10.2562 13.6976 10.1758 13.8984 10.1758 14.1078C10.1758 14.3171 10.2562 14.5179 10.3993 14.666C10.5424 14.814 10.7365 14.8972 10.9389 14.8972H21.1137C21.3161 14.8972 21.5102 14.814 21.6533 14.666C21.7964 14.5179 21.8768 14.3171 21.8768 14.1078C21.8768 13.8984 21.7964 13.6976 21.6533 13.5496C21.5102 13.4015 21.3161 13.3184 21.1137 13.3184Z" fill="white"/>
</svg>
