<svg width="122" height="48" viewBox="0 0 122 48" fill="none" xmlns="http://www.w3.org/2000/svg">
<path d="M27.7704 24.0133C29.9787 23.1006 31.818 21.6816 33.0658 19.9281C34.3624 18.1394 35.0107 16.0521 35.0107 13.666C35.0107 11.5711 34.3832 9.71748 33.128 8.10498C31.8729 6.49247 30.1272 5.21916 27.891 4.28505C25.6556 3.35094 23.1056 2.88352 20.2409 2.88281H0.939453V11.1034H18.003C19.5719 11.1034 20.7388 11.4014 21.5038 11.9974C22.2689 12.5933 22.6514 13.4234 22.6514 14.4875C22.6514 15.6489 22.2788 16.5596 21.5337 17.2195C20.7885 17.8794 19.6903 18.2101 18.239 18.2115H0.939453V36.7304H12.8308V25.4635H14.8314C24.9619 25.4635 27.7756 24.0123 27.7756 24.0123L27.7704 24.0133Z" fill="white"/>
<path d="M36.7144 36.7297L27.7703 24.0137C27.7703 24.0137 24.9566 25.4649 14.8262 25.4649L22.5333 36.7308L36.7144 36.7297Z" fill="white"/>
<path d="M93.2214 11.1028C92.6708 11.1028 92.2611 10.9981 91.9922 10.7885C91.7238 10.5754 91.589 10.2877 91.589 9.91371C91.589 9.50668 91.7186 9.18702 91.978 8.95474C92.2373 8.72245 92.6228 8.60631 93.1345 8.60631H97.2241V0.145995C97.2241 0.145995 89.7478 -0.735199 84.455 1.89133C80.6481 3.78052 79.1804 6.77573 79.6835 11.1082C79.6835 11.1082 80.11 18.8034 91.5138 18.7704H97.2189V11.1028H93.2214Z" fill="white"/>
<path d="M117.179 11.1028C116.628 11.1028 116.219 10.9981 115.95 10.7885C115.681 10.5754 115.547 10.2877 115.547 9.91371C115.547 9.50668 115.676 9.18702 115.935 8.95474C116.195 8.72245 116.58 8.60631 117.092 8.60631H121.182V0.145995C121.182 0.145995 113.704 -0.735199 108.412 1.89133C104.604 3.78052 103.137 6.77573 103.641 11.1082C103.641 11.1082 104.068 18.8034 115.471 18.7704H121.176V11.1028H117.179Z" fill="white"/>
<path d="M73.7308 11.1016H60.4677L55.4199 23.352L59.4848 37.9828L73.7308 11.1016Z" fill="white"/>
<path d="M59.3194 31.5322L55.4191 23.3532L49.491 11.0996H36.2266L47.6368 30.9781C48.3321 32.1892 48.708 33.5075 48.7397 34.8463C48.7714 36.1852 48.4583 37.5145 47.8209 38.7469L43.0416 47.9989H54.2327L59.6072 37.8071C60.3709 35.7581 60.2335 34.1119 59.3194 31.5322Z" fill="white"/>
<path d="M91.6002 18.7638H91.5276C80.1173 18.7968 79.6972 11.1016 79.6972 11.1016H75.5156V18.7638H79.7698V36.7287H91.6002V18.7638Z" fill="white"/>
<path d="M115.553 36.7287V18.7638H115.479C104.077 18.7968 103.649 11.1016 103.649 11.1016H99.4688V18.7638H103.724V36.7287H115.555H115.553Z" fill="white"/>
</svg>
